<svg xmlns="http://www.w3.org/2000/svg" width="1200" height="800" viewBox="0 0 1200 800">
  <defs>
    <linearGradient id="bg" x1="0" y1="0" x2="1" y2="1">
      <stop offset="0%" stop-color="#f4f1ff" />
      <stop offset="100%" stop-color="#e7f2ec" />
    </linearGradient>
  </defs>
  <rect width="1200" height="800" fill="url(#bg)" />
  <rect x="140" y="120" width="920" height="560" rx="32" fill="#ffffff" stroke="#e2e8f0" stroke-width="4" />
  <rect x="200" y="200" width="420" height="50" rx="16" fill="#0f172a" opacity="0.08" />
  <rect x="200" y="280" width="660" height="28" rx="14" fill="#334155" opacity="0.08" />
  <rect x="200" y="330" width="600" height="28" rx="14" fill="#334155" opacity="0.08" />
  <rect x="200" y="380" width="520" height="28" rx="14" fill="#334155" opacity="0.08" />
  <rect x="200" y="440" width="260" height="44" rx="18" fill="#22c55e" opacity="0.2" />
  <rect x="480" y="440" width="160" height="44" rx="18" fill="#0ea5e9" opacity="0.2" />
  <path d="M760 260h180v220H760z" fill="#10b981" opacity="0.08" />
  <path d="M780 280h140v40H780z" fill="#10b981" opacity="0.25" />
  <path d="M780 340h140v20H780z" fill="#10b981" opacity="0.2" />
  <path d="M780 380h140v20H780z" fill="#10b981" opacity="0.2" />
  <text x="190" y="560" fill="#064e3b" font-size="44" font-family="Trebuchet MS, Segoe UI, sans-serif" font-weight="700">
    Video Summary
  </text>
  <text x="190" y="615" fill="#475569" font-size="24" font-family="Trebuchet MS, Segoe UI, sans-serif">
    YouTube to concise notes
  </text>
</svg>
